<svg width="117" height="35" viewBox="0 0 117 35" fill="none" xmlns="http://www.w3.org/2000/svg">
<g clip-path="url(#clip0_303_156)">
<path fill-rule="evenodd" clip-rule="evenodd" d="M72.6325 27.3711C65.9159 32.3458 56.1806 35 47.7986 35C36.0458 35 25.4652 30.632 17.4606 23.3671C16.8317 22.7958 17.3952 22.0172 18.1498 22.4621C26.7884 27.5127 37.4696 30.5511 48.503 30.5511C55.9441 30.5511 64.1298 29.0041 71.6565 25.7938C72.7935 25.3084 73.7444 26.542 72.6325 27.3711Z" fill="#2D2D2D"/>
<path fill-rule="evenodd" clip-rule="evenodd" d="M75.4243 24.1608C74.569 23.0587 69.7491 23.6401 67.5857 23.8979C66.9266 23.9788 66.826 23.4025 67.4197 22.9879C71.2585 20.2731 77.5575 21.0567 78.292 21.9667C79.0266 22.8818 78.1009 29.2265 74.4935 32.2549C73.9401 32.72 73.4118 32.4722 73.6583 31.8555C74.4683 29.8231 76.2846 25.268 75.4243 24.1608Z" fill="#2D2D2D"/>
<path fill-rule="evenodd" clip-rule="evenodd" d="M67.737 3.82216V1.18313C67.737 0.78374 68.0389 0.515793 68.4011 0.515793H80.159C80.5363 0.515793 80.8382 0.788796 80.8382 1.18313V3.44299C80.8332 3.82216 80.5162 4.31761 79.9527 5.10123L73.86 13.8424C76.124 13.7868 78.5138 14.1255 80.5665 15.2883C81.0294 15.5512 81.1552 15.9354 81.1904 16.3146V19.1305C81.1904 19.5148 80.7678 19.9647 80.325 19.7322C76.7076 17.8262 71.9028 17.6189 67.903 19.7524C67.4955 19.9748 67.0679 19.5299 67.0679 19.1457V16.4713C67.0679 16.0416 67.0729 15.3085 67.5005 14.6563L74.5593 4.48444H68.4162C68.0389 4.48444 67.737 4.2165 67.737 3.82216Z" fill="#2D2D2D"/>
<path fill-rule="evenodd" clip-rule="evenodd" d="M24.8455 20.2882H21.2684C20.9262 20.2629 20.6546 20.0051 20.6294 19.6764V1.22853C20.6294 0.859467 20.9363 0.566239 21.3187 0.566239H24.6543C25.0015 0.581396 25.2782 0.849352 25.3034 1.18302V3.59455H25.3688C26.2392 1.26391 27.8743 0.176956 30.078 0.176956C32.3168 0.176956 33.7155 1.26391 34.7217 3.59455C35.5871 1.26391 37.5543 0.176956 39.6624 0.176956C41.1617 0.176956 42.8018 0.798796 43.803 2.19414C44.935 3.74622 44.7036 6.00102 44.7036 7.97776L44.6986 19.6208C44.6986 19.9899 44.3917 20.2882 44.0093 20.2882H40.4372C40.08 20.2629 39.7932 19.9747 39.7932 19.6208V9.84328C39.7932 9.06472 39.8636 7.12336 39.6926 6.38524C39.4259 5.14662 38.6259 4.79778 37.5895 4.79778C36.7241 4.79778 35.8185 5.37918 35.4513 6.30941C35.084 7.23964 35.1192 8.79677 35.1192 9.84328V19.6208C35.1192 19.9899 34.8123 20.2882 34.4299 20.2882H30.8578C30.4955 20.2629 30.2138 19.9747 30.2138 19.6208L30.2088 9.84328C30.2088 7.78565 30.5459 4.75734 28.0051 4.75734C25.4342 4.75734 25.5348 7.70981 25.5348 9.84328V19.6208C25.5348 19.9899 25.2279 20.2882 24.8455 20.2882" fill="#2D2D2D"/>
<path fill-rule="evenodd" clip-rule="evenodd" d="M90.961 0.176956C96.2689 0.176956 99.1417 4.75734 99.1417 10.5814C99.1417 16.2083 95.967 20.6724 90.961 20.6724C85.7487 20.6724 82.9111 16.092 82.9111 10.3842C82.9111 4.64106 85.7839 0.176956 90.961 0.176956ZM90.9912 3.94339C88.3549 3.94339 88.1888 7.55309 88.1888 9.80284C88.1888 12.0576 88.1536 16.8706 90.961 16.8706C93.7332 16.8706 93.864 12.9879 93.864 10.6218C93.864 9.06472 93.7986 7.20426 93.3307 5.72801C92.9282 4.44389 92.1283 3.94339 90.9912 3.94339Z" fill="#2D2D2D"/>
<path fill-rule="evenodd" clip-rule="evenodd" d="M106.024 20.2882H102.462C102.105 20.2629 101.818 19.9747 101.818 19.6208L101.813 1.16786C101.843 0.829129 102.14 0.566239 102.502 0.566239H105.818C106.13 0.581396 106.386 0.793742 106.457 1.08191V3.90294H106.522C107.523 1.38019 108.927 0.176956 111.397 0.176956C113.002 0.176956 114.567 0.758352 115.573 2.35087C116.509 3.82711 116.509 6.30941 116.509 8.09404V19.7068C116.469 20.0303 116.172 20.2882 115.82 20.2882H112.233C111.906 20.2629 111.634 20.0202 111.599 19.7068V9.68656C111.599 7.66937 111.83 4.71689 109.36 4.71689C108.489 4.71689 107.689 5.30334 107.292 6.19313C106.789 7.32053 106.723 8.44288 106.723 9.68656V19.6208C106.718 19.9899 106.406 20.2882 106.024 20.2882" fill="#2D2D2D"/>
<path fill-rule="evenodd" clip-rule="evenodd" d="M58.3641 11.4762C58.3641 12.8766 58.3993 14.0445 57.6949 15.2882C57.1264 16.2993 56.2208 16.9211 55.2196 16.9211C53.8461 16.9211 53.0411 15.8696 53.0411 14.3175C53.0411 11.2538 55.773 10.6977 58.3641 10.6977V11.4762ZM61.9714 20.2376C61.735 20.45 61.3928 20.4651 61.1262 20.3236C59.9388 19.3327 59.7225 18.8726 59.0735 17.9272C57.1113 19.9393 55.7177 20.541 53.1769 20.541C50.1632 20.541 47.8237 18.6754 47.8237 14.9393C47.8237 12.0223 49.3935 10.0354 51.6374 9.06472C53.5794 8.20527 56.2912 8.0536 58.3641 7.81599V7.35087C58.3641 6.49647 58.4295 5.48535 57.9264 4.74723C57.4937 4.08495 56.6585 3.81194 55.9189 3.81194C54.5555 3.81194 53.3429 4.51467 53.0461 5.97069C52.9857 6.29425 52.7493 6.61275 52.4222 6.62792L48.9557 6.2538C48.6639 6.18808 48.3369 5.95047 48.4224 5.50052C49.2174 1.27403 53.021 1.52588e-05 56.422 1.52588e-05C58.1628 1.52588e-05 60.4369 0.465132 61.8104 1.7897C63.5512 3.42266 63.3852 5.60163 63.3852 7.97271V13.5743C63.3852 15.2578 64.0795 15.996 64.7336 16.906C64.96 17.2295 65.0103 17.6188 64.7185 17.8615C63.9889 18.4732 62.6909 19.6107 61.9765 20.2477L61.9714 20.2376" fill="#2D2D2D"/>
<path fill-rule="evenodd" clip-rule="evenodd" d="M11.4681 11.4764C11.4681 12.8768 11.5033 14.0447 10.7989 15.2884C10.2304 16.2995 9.32981 16.9213 8.32357 16.9213C6.95006 16.9213 6.1501 15.8698 6.1501 14.3177C6.1501 11.254 8.88204 10.6979 11.4681 10.6979V11.4764ZM15.0754 20.2378C14.839 20.4501 14.4968 20.4653 14.2302 20.3238C13.0428 19.3329 12.8315 18.8728 12.1775 17.9274C10.2153 19.9395 8.82669 20.5411 6.28091 20.5411C3.27226 20.5411 0.927734 18.6756 0.927734 14.9395C0.927734 12.0225 2.50249 10.0356 4.74137 9.06492C6.68341 8.20546 9.39522 8.0538 11.4681 7.81619V7.35107C11.4681 6.49667 11.5335 5.48555 11.0354 4.74743C10.5977 4.08514 9.76249 3.81214 9.02794 3.81214C7.66449 3.81214 6.44694 4.51487 6.1501 5.97089C6.08973 6.29445 5.85326 6.61295 5.53127 6.62812L2.05975 6.254C1.76794 6.18828 1.44595 5.95066 1.52644 5.50072C2.3264 1.27423 6.12495 0.000213623 9.52603 0.000213623C11.2668 0.000213623 13.5409 0.46533 14.9144 1.7899C16.6552 3.42286 16.4892 5.60183 16.4892 7.97291V13.5745C16.4892 15.258 17.1835 15.9962 17.8375 16.9062C18.069 17.2297 18.1193 17.619 17.8275 17.8617C17.098 18.4734 15.7999 19.6109 15.0855 20.2479L15.0754 20.2378" fill="#2D2D2D"/>
</g>
<defs>
<clipPath id="clip0_303_156">
<rect width="115.581" height="35" fill="white" transform="translate(0.927734)"/>
</clipPath>
</defs>
</svg>
