<svg width="13" height="14" viewBox="0 0 13 14" fill="none" xmlns="http://www.w3.org/2000/svg">
<path d="M6.574 0.256C7.798 0.256 8.884 0.532 9.832 1.084C10.792 1.624 11.536 2.386 12.064 3.37C12.604 4.342 12.874 5.452 12.874 6.7C12.874 7.948 12.604 9.064 12.064 10.048C11.536 11.02 10.792 11.782 9.832 12.334C8.884 12.874 7.798 13.144 6.574 13.144C5.338 13.144 4.24 12.874 3.28 12.334C2.332 11.782 1.588 11.02 1.048 10.048C0.52 9.064 0.256 7.948 0.256 6.7C0.256 5.452 0.52 4.342 1.048 3.37C1.588 2.386 2.332 1.624 3.28 1.084C4.24 0.532 5.338 0.256 6.574 0.256ZM6.574 1.174C5.494 1.174 4.552 1.402 3.748 1.858C2.944 2.302 2.326 2.944 1.894 3.784C1.462 4.612 1.246 5.584 1.246 6.7C1.246 7.804 1.462 8.776 1.894 9.616C2.326 10.444 2.944 11.092 3.748 11.56C4.552 12.016 5.494 12.244 6.574 12.244C7.642 12.244 8.578 12.016 9.382 11.56C10.186 11.092 10.804 10.444 11.236 9.616C11.668 8.776 11.884 7.804 11.884 6.7C11.884 5.584 11.668 4.612 11.236 3.784C10.804 2.944 10.186 2.302 9.382 1.858C8.59 1.402 7.654 1.174 6.574 1.174ZM6.556 2.596C5.8 2.596 5.122 2.764 4.522 3.1C3.922 3.436 3.448 3.916 3.1 4.54C2.764 5.152 2.596 5.866 2.596 6.682C2.596 7.498 2.764 8.218 3.1 8.842C3.448 9.466 3.922 9.946 4.522 10.282C5.122 10.618 5.8 10.786 6.556 10.786C7.48 10.786 8.278 10.534 8.95 10.03C9.622 9.514 10.06 8.836 10.264 7.996H8.05C7.918 8.332 7.726 8.59 7.474 8.77C7.234 8.95 6.91 9.04 6.502 9.04C5.95 9.04 5.512 8.842 5.188 8.446C4.876 8.038 4.72 7.45 4.72 6.682C4.72 5.914 4.876 5.332 5.188 4.936C5.512 4.54 5.95 4.342 6.502 4.342C6.886 4.342 7.21 4.432 7.474 4.612C7.75 4.792 7.942 5.05 8.05 5.386H10.264C10.06 4.522 9.622 3.844 8.95 3.352C8.29 2.848 7.492 2.596 6.556 2.596Z" fill="#2D2D2D"/>
</svg>
